# xmcd CD database file
#
# Track frame offsets:
#	150
#	45594
#	71449
#	90110
#	121367
#	144421
#	170570
#	206395
#	232276
#	255770
#	286496
#	311099
#
# Disc length: 4489 seconds
#
# Revision: 0
# Processed by: cddbd v1.5.2PL0 Copyright (c) Steve Scherf et al.
# Submitted via: CDex 1.51
#
DISCID=a211870c
DTITLE=Eric Dolphy - 12 Classic Albums Disc One
DYEAR=1962
DGENRE=Jazz
TTITLE0=Caribe
TTITLE1=Blues In 6:8
TTITLE2=First Bass Line
TTITLE3=Mambo Ricci
TTITLE4=Spring Is Here
TTITLE5=Sunday Go To Meetin'
TTITLE6=G.W.
TTITLE7=Green Dolphin Street
TTITLE8=Les
TTITLE9=245
TTITLE10=Glad To Be Unhappy
TTITLE11=Miss Toni
EXTD=YEAR: 1962
EXTT0=
EXTT1=
EXTT2=
EXTT3=
EXTT4=
EXTT5=
EXTT6=
EXTT7=
EXTT8=
EXTT9=
EXTT10=
EXTT11=
PLAYORDER=
